<svg xmlns="http://www.w3.org/2000/svg" xmlns:xlink="http://www.w3.org/1999/xlink" width="756" zoomAndPan="magnify" viewBox="0 0 567 203.999996" height="272" preserveAspectRatio="xMidYMid meet" version="1.2"><defs><clipPath id="0b6d36de7c"><path d="M 57.296875 120 L 111.929688 120 L 111.929688 184.089844 L 57.296875 184.089844 Z M 57.296875 120 "/></clipPath><clipPath id="acc7d7bf61"><path d="M 69.539062 175.613281 C 70.578125 175.835938 71.628906 175.890625 72.679688 175.796875 C 75.808594 180.910156 80.019531 184.050781 84.652344 184.050781 C 89.28125 184.050781 93.496094 180.917969 96.625 175.796875 C 97.675781 175.894531 98.726562 175.835938 99.765625 175.613281 C 109.207031 173.597656 114.023438 158.644531 110.523438 142.210938 C 108.519531 132.808594 104.21875 124.957031 99.144531 120.339844 C 98.242188 119.515625 96.824219 120.433594 97.210938 121.589844 C 98.53125 125.574219 99.292969 130.246094 99.292969 135.234375 C 99.292969 135.800781 99.28125 136.359375 99.265625 136.921875 C 98.886719 147.828125 94.871094 156.949219 89.382812 160.339844 C 87.902344 161.253906 86.308594 161.753906 84.652344 161.753906 C 82.992188 161.753906 81.402344 161.253906 79.917969 160.339844 C 74.433594 156.949219 70.414062 147.828125 70.039062 136.921875 C 70.015625 136.359375 70.011719 135.800781 70.011719 135.234375 C 70.011719 130.242188 70.773438 125.574219 72.101562 121.589844 C 72.484375 120.433594 71.070312 119.523438 70.164062 120.339844 C 65.089844 124.957031 60.789062 132.808594 58.785156 142.210938 C 55.28125 158.644531 60.101562 173.597656 69.546875 175.613281 "/></clipPath><clipPath id="551db8614a"><path d="M 103 75.488281 L 167.230469 75.488281 L 167.230469 130 L 103 130 Z M 103 75.488281 "/></clipPath><clipPath id="a40ae1a23d"><path d="M 158.753906 117.882812 C 158.976562 116.847656 159.03125 115.792969 158.9375 114.742188 C 164.050781 111.617188 167.195312 107.402344 167.195312 102.769531 C 167.195312 98.140625 164.058594 93.925781 158.9375 90.800781 C 159.035156 89.746094 158.976562 88.695312 158.753906 87.660156 C 156.738281 78.214844 141.789062 73.402344 125.351562 76.898438 C 115.949219 78.902344 108.097656 83.203125 103.480469 88.277344 C 102.65625 89.183594 103.574219 90.597656 104.726562 90.214844 C 108.710938 88.890625 113.382812 88.128906 118.371094 88.128906 C 118.9375 88.128906 119.496094 88.144531 120.054688 88.15625 C 130.960938 88.535156 140.082031 92.550781 143.472656 98.039062 C 144.390625 99.523438 144.886719 101.113281 144.886719 102.769531 C 144.886719 104.429688 144.390625 106.019531 143.472656 107.503906 C 140.082031 112.992188 130.960938 117.007812 120.054688 117.386719 C 119.496094 117.40625 118.9375 117.414062 118.371094 117.414062 C 113.375 117.414062 108.710938 116.652344 104.726562 115.324219 C 103.566406 114.9375 102.65625 116.355469 103.480469 117.257812 C 108.097656 122.332031 115.949219 126.632812 125.351562 128.636719 C 141.789062 132.140625 156.738281 127.320312 158.753906 117.878906 "/></clipPath><clipPath id="05350ba086"><path d="M 58.628906 20.191406 L 113 20.191406 L 113 84.816406 L 58.628906 84.816406 Z M 58.628906 20.191406 "/></clipPath><clipPath id="6b07f8ce0f"><path d="M 101.023438 28.664062 C 99.988281 28.441406 98.9375 28.386719 97.882812 28.480469 C 94.75 23.363281 90.535156 20.230469 85.90625 20.230469 C 81.273438 20.230469 77.0625 23.363281 73.933594 28.488281 C 72.882812 28.386719 71.832031 28.445312 70.792969 28.667969 C 61.34375 30.679688 56.527344 45.628906 60.035156 62.0625 C 62.035156 71.464844 66.335938 79.320312 71.414062 83.9375 C 72.316406 84.757812 73.730469 83.84375 73.347656 82.683594 C 72.027344 78.699219 71.265625 74.027344 71.265625 69.039062 C 71.265625 68.472656 71.277344 67.914062 71.292969 67.355469 C 71.667969 56.449219 75.6875 47.328125 81.171875 43.9375 C 82.65625 43.019531 84.246094 42.523438 85.90625 42.523438 C 87.5625 42.523438 89.15625 43.019531 90.636719 43.9375 C 96.125 47.328125 100.140625 56.449219 100.519531 67.355469 C 100.539062 67.914062 100.546875 68.472656 100.546875 69.039062 C 100.546875 74.035156 99.785156 78.699219 98.457031 82.683594 C 98.074219 83.84375 99.488281 84.753906 100.390625 83.9375 C 105.46875 79.320312 109.769531 71.464844 111.769531 62.0625 C 115.277344 45.628906 110.457031 30.679688 101.011719 28.664062 "/></clipPath><clipPath id="5db2064cbb"><path d="M 3.332031 74.15625 L 67.957031 74.15625 L 67.957031 128.789062 L 3.332031 128.789062 Z M 3.332031 74.15625 "/></clipPath><clipPath id="fded68e691"><path d="M 11.804688 86.398438 C 11.582031 87.4375 11.527344 88.488281 11.621094 89.539062 C 6.503906 92.667969 3.371094 96.878906 3.371094 101.511719 C 3.371094 106.140625 6.503906 110.355469 11.628906 113.484375 C 11.527344 114.535156 11.585938 115.585938 11.808594 116.625 C 13.824219 126.066406 28.777344 130.878906 45.210938 127.382812 C 54.613281 125.378906 62.46875 121.078125 67.085938 116.003906 C 67.90625 115.101562 66.992188 113.683594 65.839844 114.070312 C 61.855469 115.390625 57.183594 116.152344 52.195312 116.152344 C 51.628906 116.152344 51.070312 116.136719 50.507812 116.125 C 39.601562 115.746094 30.480469 111.730469 27.089844 106.242188 C 26.175781 104.761719 25.675781 103.167969 25.675781 101.511719 C 25.675781 99.851562 26.175781 98.261719 27.089844 96.777344 C 30.480469 91.292969 39.601562 87.273438 50.507812 86.898438 C 51.070312 86.875 51.628906 86.871094 52.195312 86.871094 C 57.1875 86.871094 61.855469 87.632812 65.839844 88.960938 C 66.996094 89.34375 67.90625 87.929688 67.085938 87.023438 C 62.46875 81.949219 54.613281 77.648438 45.210938 75.644531 C 28.769531 72.132812 13.820312 76.953125 11.804688 86.398438 "/></clipPath><clipPath id="0e34613d17"><path d="M 118 47.507812 L 139.914062 47.507812 L 139.914062 69.492188 L 118 69.492188 Z M 118 47.507812 "/></clipPath><clipPath id="af884f6871"><path d="M 138.570312 54.433594 C 137.027344 55.976562 119.832031 70.671875 118.289062 69.128906 C 116.746094 67.585938 131.445312 50.386719 132.984375 48.84375 C 134.519531 47.300781 137.027344 47.300781 138.570312 48.84375 C 140.117188 50.386719 140.117188 52.890625 138.570312 54.433594 "/></clipPath><clipPath id="7ac07923aa"><path d="M 30.648438 135 L 52.632812 135 L 52.632812 156.773438 L 30.648438 156.773438 Z M 30.648438 135 "/></clipPath><clipPath id="b82ba70f9b"><path d="M 31.984375 149.84375 C 33.527344 148.300781 50.726562 133.605469 52.269531 135.148438 C 53.8125 136.691406 39.109375 153.886719 37.574219 155.429688 C 36.035156 156.972656 33.527344 156.972656 31.984375 155.429688 C 30.441406 153.886719 30.441406 151.386719 31.984375 149.84375 "/></clipPath><clipPath id="95e490aaa0"><path d="M 30.648438 47.507812 L 52.632812 47.507812 L 52.632812 69.492188 L 30.648438 69.492188 Z M 30.648438 47.507812 "/></clipPath><clipPath id="f3e29d4261"><path d="M 37.574219 48.84375 C 39.117188 50.386719 53.8125 67.585938 52.269531 69.128906 C 50.726562 70.671875 33.527344 55.96875 31.984375 54.433594 C 30.441406 52.894531 30.441406 50.386719 31.984375 48.84375 C 33.527344 47.300781 36.03125 47.300781 37.574219 48.84375 "/></clipPath><clipPath id="3bea2d0e45"><path d="M 118 135 L 139.914062 135 L 139.914062 156.773438 L 118 156.773438 Z M 118 135 "/></clipPath><clipPath id="762f558d52"><path d="M 132.984375 155.429688 C 131.441406 153.886719 116.746094 136.691406 118.289062 135.148438 C 119.832031 133.605469 137.027344 148.304688 138.570312 149.84375 C 140.117188 151.378906 140.117188 153.886719 138.570312 155.429688 C 137.027344 156.972656 134.527344 156.972656 132.984375 155.429688 "/></clipPath><clipPath id="3b7ebda6d8"><path d="M 187.3125 47.28125 L 272 47.28125 L 272 156 L 187.3125 156 Z M 187.3125 47.28125 "/></clipPath><clipPath id="156fbee4cb"><path d="M 230.550781 47.507812 C 253.625 47.507812 269.953125 58.8125 269.953125 78.589844 L 269.953125 86.433594 L 250.167969 86.433594 L 250.167969 78.589844 C 250.167969 69.328125 242.949219 63.523438 230.390625 63.523438 L 228.664062 63.523438 C 216.105469 63.523438 208.886719 69.015625 208.886719 76.550781 L 208.886719 78.277344 C 208.886719 86.597656 215.324219 88.949219 235.882812 94.132812 C 259.585938 100.253906 271.832031 107.636719 271.832031 125.214844 L 271.832031 126.785156 C 271.832031 143.265625 258.175781 155.824219 230.550781 155.824219 L 228.664062 155.824219 C 201.195312 155.820312 187.539062 143.261719 187.539062 123.164062 L 187.539062 115.628906 L 207.316406 115.628906 L 207.316406 123.320312 C 207.316406 134.933594 214.691406 139.800781 228.820312 139.800781 L 230.542969 139.800781 C 244.671875 139.800781 251.894531 134.933594 251.894531 126.933594 L 251.894531 125.519531 C 251.894531 117.355469 244.828125 113.902344 223.953125 109.035156 C 201.820312 104.015625 189.101562 96.949219 189.101562 78.742188 L 189.101562 76.863281 C 189.109375 58.648438 204.019531 47.507812 228.664062 47.507812 Z M 230.550781 47.507812 "/></clipPath><clipPath id="b619e280e7"><path d="M 276 49 L 373.820312 49 L 373.820312 154.691406 L 276 154.691406 Z M 276 49 "/></clipPath><clipPath id="d0494aae72"><path d="M 296.316406 49.078125 L 323.472656 133.6875 L 328.023438 133.6875 L 354.867188 49.078125 L 373.546875 49.078125 L 340.265625 154.246094 L 309.816406 154.246094 L 276.226562 49.078125 Z M 296.316406 49.078125 "/></clipPath><clipPath id="83d13d97ff"><path d="M 383.121094 49.074219 L 466 49.074219 L 466 154.292969 L 383.121094 154.292969 Z M 383.121094 49.074219 "/></clipPath><clipPath id="9bc71dc280"><path d="M 402.742188 138.546875 L 427.695312 138.546875 C 440.410156 138.546875 446.066406 134.152344 446.066406 125.046875 L 446.066406 121.902344 C 446.066406 113.113281 440.417969 108.246094 426.914062 108.246094 L 402.742188 108.246094 Z M 402.742188 93.652344 L 426.289062 93.652344 C 437.902344 93.652344 442.613281 88.3125 442.613281 80.46875 L 442.613281 77.332031 C 442.613281 69.324219 437.910156 64.773438 425.660156 64.773438 L 402.742188 64.773438 Z M 427.226562 49.074219 C 449.828125 49.074219 462.546875 57.867188 462.546875 74.503906 L 462.546875 78.269531 C 462.546875 86.589844 458.308594 93.496094 450.304688 97.894531 L 450.304688 101.507812 C 459.722656 105.273438 466.003906 112.492188 466.003906 123.796875 L 466.003906 127.25 C 466.003906 144.675781 453.136719 154.246094 429.273438 154.246094 L 383.121094 154.246094 L 383.121094 49.074219 Z M 427.226562 49.074219 "/></clipPath><clipPath id="a2b269913e"><path d="M 476.199219 47.507812 L 567 47.507812 L 567 155.957031 L 476.199219 155.957031 Z M 476.199219 47.507812 "/></clipPath><clipPath id="72de9e031d"><path d="M 522.976562 47.507812 C 549.191406 47.507812 565.828125 61.636719 565.828125 88.789062 L 565.828125 90.359375 L 545.894531 90.359375 L 545.894531 88.789062 C 545.738281 72.621094 537.101562 64.769531 522.820312 64.769531 L 519.679688 64.769531 C 505.550781 64.769531 496.289062 72.777344 496.289062 89.570312 L 496.289062 113.433594 C 496.289062 131.167969 505.550781 138.546875 519.679688 138.546875 L 522.976562 138.546875 C 537.101562 138.546875 546.367188 131.167969 546.367188 114.058594 L 546.367188 109.664062 L 566.933594 109.664062 L 566.933594 154.242188 L 551.550781 154.242188 L 551.550781 142.78125 L 547.625 142.78125 C 541.035156 151.417969 531.144531 155.8125 519.683594 155.8125 L 516.382812 155.8125 C 493 155.820312 476.199219 142.472656 476.199219 113.433594 L 476.199219 89.574219 C 476.199219 61.789062 493.78125 47.507812 519.679688 47.507812 Z M 522.976562 47.507812 "/></clipPath></defs><g id="7b480d9826"><g clip-rule="nonzero" clip-path="url(#0b6d36de7c)"><g clip-rule="nonzero" clip-path="url(#acc7d7bf61)"><path style=" stroke:none;fill-rule:nonzero;fill:#1b1464;fill-opacity:1;" d="M 0 16.859375 L 170.5625 16.859375 L 170.5625 187.417969 L 0 187.417969 Z M 0 16.859375 "/></g></g><g clip-rule="nonzero" clip-path="url(#551db8614a)"><g clip-rule="nonzero" clip-path="url(#a40ae1a23d)"><path style=" stroke:none;fill-rule:nonzero;fill:#1b1464;fill-opacity:1;" d="M 0 16.859375 L 170.5625 16.859375 L 170.5625 187.417969 L 0 187.417969 Z M 0 16.859375 "/></g></g><g clip-rule="nonzero" clip-path="url(#05350ba086)"><g clip-rule="nonzero" clip-path="url(#6b07f8ce0f)"><path style=" stroke:none;fill-rule:nonzero;fill:#1b1464;fill-opacity:1;" d="M 0 16.859375 L 170.5625 16.859375 L 170.5625 187.417969 L 0 187.417969 Z M 0 16.859375 "/></g></g><g clip-rule="nonzero" clip-path="url(#5db2064cbb)"><g clip-rule="nonzero" clip-path="url(#fded68e691)"><path style=" stroke:none;fill-rule:nonzero;fill:#1b1464;fill-opacity:1;" d="M 0 16.859375 L 170.5625 16.859375 L 170.5625 187.417969 L 0 187.417969 Z M 0 16.859375 "/></g></g><g clip-rule="nonzero" clip-path="url(#0e34613d17)"><g clip-rule="nonzero" clip-path="url(#af884f6871)"><path style=" stroke:none;fill-rule:nonzero;fill:#c99a3c;fill-opacity:1;" d="M 0 16.859375 L 170.5625 16.859375 L 170.5625 187.417969 L 0 187.417969 Z M 0 16.859375 "/></g></g><g clip-rule="nonzero" clip-path="url(#7ac07923aa)"><g clip-rule="nonzero" clip-path="url(#b82ba70f9b)"><path style=" stroke:none;fill-rule:nonzero;fill:#c99a3c;fill-opacity:1;" d="M 0 16.859375 L 170.5625 16.859375 L 170.5625 187.417969 L 0 187.417969 Z M 0 16.859375 "/></g></g><g clip-rule="nonzero" clip-path="url(#95e490aaa0)"><g clip-rule="nonzero" clip-path="url(#f3e29d4261)"><path style=" stroke:none;fill-rule:nonzero;fill:#c99a3c;fill-opacity:1;" d="M 0 16.859375 L 170.5625 16.859375 L 170.5625 187.417969 L 0 187.417969 Z M 0 16.859375 "/></g></g><g clip-rule="nonzero" clip-path="url(#3bea2d0e45)"><g clip-rule="nonzero" clip-path="url(#762f558d52)"><path style=" stroke:none;fill-rule:nonzero;fill:#c99a3c;fill-opacity:1;" d="M 0 16.859375 L 170.5625 16.859375 L 170.5625 187.417969 L 0 187.417969 Z M 0 16.859375 "/></g></g><g clip-rule="nonzero" clip-path="url(#3b7ebda6d8)"><g clip-rule="nonzero" clip-path="url(#156fbee4cb)"><path style=" stroke:none;fill-rule:nonzero;fill:#1b1464;fill-opacity:1;" d="M 184.167969 44.136719 L 376.96875 44.136719 L 376.96875 159.1875 L 184.167969 159.1875 Z M 184.167969 44.136719 "/></g></g><g clip-rule="nonzero" clip-path="url(#b619e280e7)"><g clip-rule="nonzero" clip-path="url(#d0494aae72)"><path style=" stroke:none;fill-rule:nonzero;fill:#1b1464;fill-opacity:1;" d="M 184.167969 44.136719 L 376.96875 44.136719 L 376.96875 159.1875 L 184.167969 159.1875 Z M 184.167969 44.136719 "/></g></g><g clip-rule="nonzero" clip-path="url(#83d13d97ff)"><g clip-rule="nonzero" clip-path="url(#9bc71dc280)"><path style=" stroke:none;fill-rule:nonzero;fill:#1b1464;fill-opacity:1;" d="M 383.121094 49.074219 L 466 49.074219 L 466 154.292969 L 383.121094 154.292969 Z M 383.121094 49.074219 "/></g></g><g clip-rule="nonzero" clip-path="url(#a2b269913e)"><g clip-rule="nonzero" clip-path="url(#72de9e031d)"><path style=" stroke:none;fill-rule:nonzero;fill:#1b1464;fill-opacity:1;" d="M 476.199219 47.507812 L 566.929688 47.507812 L 566.929688 155.957031 L 476.199219 155.957031 Z M 476.199219 47.507812 "/></g></g></g></svg>