<svg xmlns="http://www.w3.org/2000/svg" xmlns:xlink="http://www.w3.org/1999/xlink" width="756" zoomAndPan="magnify" viewBox="0 0 567 203.999996" height="272" preserveAspectRatio="xMidYMid meet" version="1.2"><defs><clipPath id="12f0b1070f"><path d="M 57.269531 119.40625 L 111.878906 119.40625 L 111.878906 184 L 57.269531 184 Z M 57.269531 119.40625 "/></clipPath><clipPath id="0d364325a8"><path d="M 69.507812 175.53125 C 70.542969 175.753906 71.59375 175.808594 72.644531 175.714844 C 75.773438 180.828125 79.984375 183.96875 84.613281 183.96875 C 89.242188 183.96875 93.453125 180.835938 96.578125 175.714844 C 97.628906 175.816406 98.679688 175.753906 99.71875 175.53125 C 109.15625 173.515625 113.96875 158.574219 110.472656 142.144531 C 108.472656 132.746094 104.171875 124.898438 99.097656 120.28125 C 98.195312 119.460938 96.78125 120.375 97.164062 121.535156 C 98.484375 125.515625 99.246094 130.1875 99.246094 135.171875 C 99.246094 135.738281 99.234375 136.296875 99.21875 136.855469 C 98.84375 147.757812 94.828125 156.875 89.34375 160.265625 C 87.859375 161.179688 86.269531 161.679688 84.613281 161.679688 C 82.953125 161.679688 81.363281 161.179688 79.882812 160.265625 C 74.398438 156.875 70.382812 147.757812 70.003906 136.855469 C 69.984375 136.296875 69.976562 135.738281 69.976562 135.171875 C 69.976562 130.179688 70.738281 125.515625 72.066406 121.535156 C 72.449219 120.375 71.035156 119.46875 70.132812 120.28125 C 65.058594 124.898438 60.761719 132.746094 58.761719 142.144531 C 55.257812 158.574219 60.074219 173.515625 69.511719 175.53125 "/></clipPath><clipPath id="a31ed623ce"><path d="M 103 75.453125 L 167.152344 75.453125 L 167.152344 130 L 103 130 Z M 103 75.453125 "/></clipPath><clipPath id="d643aca66f"><path d="M 158.679688 117.828125 C 158.902344 116.792969 158.957031 115.742188 158.863281 114.691406 C 163.976562 111.5625 167.117188 107.351562 167.117188 102.722656 C 167.117188 98.09375 163.984375 93.882812 158.863281 90.757812 C 158.964844 89.707031 158.902344 88.65625 158.679688 87.617188 C 156.664062 78.179688 141.722656 73.367188 125.296875 76.863281 C 115.894531 78.867188 108.046875 83.164062 103.429688 88.238281 C 102.609375 89.140625 103.523438 90.554688 104.675781 90.171875 C 108.660156 88.851562 113.328125 88.089844 118.316406 88.089844 C 118.878906 88.089844 119.441406 88.101562 120 88.117188 C 130.902344 88.492188 140.015625 92.507812 143.40625 97.992188 C 144.324219 99.476562 144.820312 101.066406 144.820312 102.722656 C 144.820312 104.382812 144.324219 105.972656 143.40625 107.453125 C 140.015625 112.9375 130.902344 116.953125 120 117.332031 C 119.441406 117.351562 118.878906 117.359375 118.316406 117.359375 C 113.320312 117.359375 108.660156 116.597656 104.675781 115.269531 C 103.519531 114.886719 102.609375 116.300781 103.429688 117.203125 C 108.046875 122.277344 115.894531 126.574219 125.296875 128.578125 C 141.722656 132.078125 156.664062 127.261719 158.679688 117.824219 "/></clipPath><clipPath id="4567b52175"><path d="M 58.601562 20.179688 L 113 20.179688 L 113 84.777344 L 58.601562 84.777344 Z M 58.601562 20.179688 "/></clipPath><clipPath id="92cfce099f"><path d="M 100.976562 28.648438 C 99.941406 28.425781 98.890625 28.371094 97.839844 28.46875 C 94.707031 23.351562 90.496094 20.21875 85.867188 20.21875 C 81.238281 20.21875 77.027344 23.351562 73.898438 28.472656 C 72.847656 28.371094 71.796875 28.433594 70.757812 28.65625 C 61.3125 30.664062 56.503906 45.609375 60.007812 62.035156 C 62.007812 71.433594 66.304688 79.28125 71.378906 83.898438 C 72.28125 84.71875 73.699219 83.804688 73.3125 82.644531 C 71.992188 78.664062 71.230469 73.992188 71.230469 69.007812 C 71.230469 68.441406 71.246094 67.882812 71.257812 67.324219 C 71.636719 56.421875 75.652344 47.304688 81.136719 43.917969 C 82.617188 43 84.207031 42.5 85.867188 42.5 C 87.523438 42.5 89.113281 43 90.59375 43.917969 C 96.082031 47.304688 100.097656 56.421875 100.472656 67.324219 C 100.492188 67.882812 100.5 68.441406 100.5 69.007812 C 100.5 74 99.738281 78.664062 98.410156 82.644531 C 98.027344 83.804688 99.441406 84.714844 100.34375 83.898438 C 105.417969 79.28125 109.71875 71.433594 111.71875 62.035156 C 115.222656 45.609375 110.40625 30.664062 100.964844 28.648438 "/></clipPath><clipPath id="fad00aa8f3"><path d="M 3.328125 74.121094 L 67.925781 74.121094 L 67.925781 128.730469 L 3.328125 128.730469 Z M 3.328125 74.121094 "/></clipPath><clipPath id="2df632f457"><path d="M 11.796875 86.359375 C 11.574219 87.394531 11.523438 88.445312 11.617188 89.496094 C 6.5 92.625 3.367188 96.835938 3.367188 101.464844 C 3.367188 106.09375 6.5 110.304688 11.621094 113.429688 C 11.523438 114.480469 11.582031 115.53125 11.804688 116.570312 C 13.820312 126.007812 28.761719 130.820312 45.191406 127.324219 C 54.589844 125.320312 62.4375 121.023438 67.054688 115.949219 C 67.875 115.046875 66.960938 113.632812 65.808594 114.015625 C 61.824219 115.335938 57.15625 116.097656 52.171875 116.097656 C 51.605469 116.097656 51.046875 116.085938 50.484375 116.070312 C 39.585938 115.695312 30.46875 111.679688 27.078125 106.195312 C 26.164062 104.710938 25.664062 103.121094 25.664062 101.464844 C 25.664062 99.804688 26.164062 98.214844 27.078125 96.734375 C 30.46875 91.25 39.585938 87.234375 50.484375 86.855469 C 51.046875 86.835938 51.605469 86.828125 52.171875 86.828125 C 57.164062 86.828125 61.824219 87.589844 65.808594 88.917969 C 66.964844 89.300781 67.875 87.886719 67.054688 86.984375 C 62.4375 81.910156 54.589844 77.613281 45.191406 75.609375 C 28.757812 72.101562 13.8125 76.917969 11.796875 86.359375 "/></clipPath><clipPath id="1aa3c13f1e"><path d="M 118 47.484375 L 139.847656 47.484375 L 139.847656 69.460938 L 118 69.460938 Z M 118 47.484375 "/></clipPath><clipPath id="58f5d14bf1"><path d="M 138.507812 54.40625 C 136.964844 55.949219 119.777344 70.636719 118.234375 69.09375 C 116.691406 67.550781 131.386719 50.363281 132.921875 48.820312 C 134.457031 47.277344 136.964844 47.277344 138.507812 48.820312 C 140.050781 50.363281 140.050781 52.863281 138.507812 54.40625 "/></clipPath><clipPath id="540103e698"><path d="M 30.632812 134.722656 L 52.609375 134.722656 L 52.609375 156.699219 L 30.632812 156.699219 Z M 30.632812 134.722656 "/></clipPath><clipPath id="538122a1ce"><path d="M 31.96875 149.773438 C 33.511719 148.230469 50.703125 133.542969 52.246094 135.085938 C 53.789062 136.628906 39.09375 153.816406 37.554688 155.359375 C 36.019531 156.902344 33.511719 156.902344 31.96875 155.359375 C 30.425781 153.816406 30.425781 151.316406 31.96875 149.773438 "/></clipPath><clipPath id="1647d6719e"><path d="M 30.632812 47.484375 L 52.609375 47.484375 L 52.609375 69.460938 L 30.632812 69.460938 Z M 30.632812 47.484375 "/></clipPath><clipPath id="e89d7788cf"><path d="M 37.554688 48.820312 C 39.097656 50.363281 53.789062 67.550781 52.246094 69.09375 C 50.703125 70.636719 33.511719 55.945312 31.96875 54.40625 C 30.425781 52.871094 30.425781 50.363281 31.96875 48.820312 C 33.511719 47.277344 36.011719 47.277344 37.554688 48.820312 "/></clipPath><clipPath id="f606b1c957"><path d="M 118 134.722656 L 139.847656 134.722656 L 139.847656 156.699219 L 118 156.699219 Z M 118 134.722656 "/></clipPath><clipPath id="9d733adeaa"><path d="M 132.921875 155.359375 C 131.378906 153.816406 116.691406 136.628906 118.234375 135.085938 C 119.777344 133.542969 136.964844 148.238281 138.507812 149.773438 C 140.050781 151.308594 140.050781 153.816406 138.507812 155.359375 C 136.964844 156.902344 134.464844 156.902344 132.921875 155.359375 "/></clipPath><clipPath id="b07031a4ed"><path d="M 187.226562 47.261719 L 272 47.261719 L 272 155.96875 L 187.226562 155.96875 Z M 187.226562 47.261719 "/></clipPath><clipPath id="370d911097"><path d="M 230.445312 47.484375 C 253.507812 47.484375 269.828125 58.785156 269.828125 78.550781 L 269.828125 86.394531 L 250.050781 86.394531 L 250.050781 78.550781 C 250.050781 69.292969 242.835938 63.492188 230.28125 63.492188 L 228.558594 63.492188 C 216.003906 63.492188 208.789062 68.984375 208.789062 76.515625 L 208.789062 78.242188 C 208.789062 86.554688 215.222656 88.90625 235.773438 94.089844 C 259.464844 100.207031 271.707031 107.585938 271.707031 125.15625 L 271.707031 126.726562 C 271.707031 143.199219 258.054688 155.753906 230.445312 155.753906 L 228.558594 155.753906 C 201.101562 155.746094 187.453125 143.195312 187.453125 123.109375 L 187.453125 115.574219 L 207.21875 115.574219 L 207.21875 123.265625 C 207.21875 134.871094 214.589844 139.738281 228.714844 139.738281 L 230.4375 139.738281 C 244.558594 139.738281 251.777344 134.871094 251.777344 126.875 L 251.777344 125.460938 C 251.777344 117.300781 244.714844 113.851562 223.847656 108.988281 C 201.730469 103.96875 189.015625 96.90625 189.015625 78.707031 L 189.015625 76.828125 C 189.019531 58.621094 203.925781 47.484375 228.558594 47.484375 Z M 230.445312 47.484375 "/></clipPath><clipPath id="51b2ebcd5a"><path d="M 276 49 L 373.648438 49 L 373.648438 154.621094 L 276 154.621094 Z M 276 49 "/></clipPath><clipPath id="f6fb1f1efa"><path d="M 296.179688 49.054688 L 323.324219 133.625 L 327.871094 133.625 L 354.703125 49.054688 L 373.371094 49.054688 L 340.109375 154.175781 L 309.675781 154.175781 L 276.101562 49.054688 Z M 296.179688 49.054688 "/></clipPath><clipPath id="e3d139168c"><path d="M 382.941406 49.054688 L 466 49.054688 L 466 154.222656 L 382.941406 154.222656 Z M 382.941406 49.054688 "/></clipPath><clipPath id="5b4005cfb2"><path d="M 402.554688 138.484375 L 427.5 138.484375 C 440.207031 138.484375 445.859375 134.089844 445.859375 124.988281 L 445.859375 121.847656 C 445.859375 113.0625 440.210938 108.195312 426.71875 108.195312 L 402.554688 108.195312 Z M 402.554688 93.609375 L 426.089844 93.609375 C 437.699219 93.609375 442.410156 88.273438 442.410156 80.429688 L 442.410156 77.296875 C 442.410156 69.292969 437.707031 64.746094 425.464844 64.746094 L 402.554688 64.746094 Z M 427.027344 49.054688 C 449.617188 49.054688 462.332031 57.839844 462.332031 74.46875 L 462.332031 78.234375 C 462.332031 86.546875 458.09375 93.453125 450.097656 97.847656 L 450.097656 101.460938 C 459.507812 105.226562 465.789062 112.441406 465.789062 123.742188 L 465.789062 127.191406 C 465.789062 144.609375 452.925781 154.175781 429.074219 154.175781 L 382.941406 154.175781 L 382.941406 49.054688 Z M 427.027344 49.054688 "/></clipPath><clipPath id="718fdb838e"><path d="M 475.980469 47.484375 L 567 47.484375 L 567 155.882812 L 475.980469 155.882812 Z M 475.980469 47.484375 "/></clipPath><clipPath id="f2a7442b8c"><path d="M 522.734375 47.484375 C 548.9375 47.484375 565.5625 61.605469 565.5625 88.746094 L 565.5625 90.316406 L 545.640625 90.316406 L 545.640625 88.746094 C 545.484375 72.589844 536.855469 64.738281 522.578125 64.738281 L 519.4375 64.738281 C 505.316406 64.738281 496.058594 72.746094 496.058594 89.527344 L 496.058594 113.378906 C 496.058594 131.105469 505.316406 138.484375 519.4375 138.484375 L 522.734375 138.484375 C 536.855469 138.484375 546.113281 131.105469 546.113281 114.007812 L 546.113281 109.613281 L 566.667969 109.613281 L 566.667969 154.167969 L 551.292969 154.167969 L 551.292969 142.714844 L 547.371094 142.714844 C 540.78125 151.347656 530.898438 155.738281 519.445312 155.738281 L 516.144531 155.738281 C 492.769531 155.746094 475.980469 142.40625 475.980469 113.378906 L 475.980469 89.535156 C 475.980469 61.761719 493.550781 47.484375 519.4375 47.484375 Z M 522.734375 47.484375 "/></clipPath></defs><g id="bcad931e92"><g clip-rule="nonzero" clip-path="url(#12f0b1070f)"><g clip-rule="nonzero" clip-path="url(#0d364325a8)"><path style=" stroke:none;fill-rule:nonzero;fill:#ffffff;fill-opacity:1;" d="M 0 16.851562 L 170.480469 16.851562 L 170.480469 187.332031 L 0 187.332031 Z M 0 16.851562 "/></g></g><g clip-rule="nonzero" clip-path="url(#a31ed623ce)"><g clip-rule="nonzero" clip-path="url(#d643aca66f)"><path style=" stroke:none;fill-rule:nonzero;fill:#ffffff;fill-opacity:1;" d="M 0 16.851562 L 170.480469 16.851562 L 170.480469 187.332031 L 0 187.332031 Z M 0 16.851562 "/></g></g><g clip-rule="nonzero" clip-path="url(#4567b52175)"><g clip-rule="nonzero" clip-path="url(#92cfce099f)"><path style=" stroke:none;fill-rule:nonzero;fill:#ffffff;fill-opacity:1;" d="M 0 16.851562 L 170.480469 16.851562 L 170.480469 187.332031 L 0 187.332031 Z M 0 16.851562 "/></g></g><g clip-rule="nonzero" clip-path="url(#fad00aa8f3)"><g clip-rule="nonzero" clip-path="url(#2df632f457)"><path style=" stroke:none;fill-rule:nonzero;fill:#ffffff;fill-opacity:1;" d="M 0 16.851562 L 170.480469 16.851562 L 170.480469 187.332031 L 0 187.332031 Z M 0 16.851562 "/></g></g><g clip-rule="nonzero" clip-path="url(#1aa3c13f1e)"><g clip-rule="nonzero" clip-path="url(#58f5d14bf1)"><path style=" stroke:none;fill-rule:nonzero;fill:#ffffff;fill-opacity:1;" d="M 0 16.851562 L 170.480469 16.851562 L 170.480469 187.332031 L 0 187.332031 Z M 0 16.851562 "/></g></g><g clip-rule="nonzero" clip-path="url(#540103e698)"><g clip-rule="nonzero" clip-path="url(#538122a1ce)"><path style=" stroke:none;fill-rule:nonzero;fill:#ffffff;fill-opacity:1;" d="M 0 16.851562 L 170.480469 16.851562 L 170.480469 187.332031 L 0 187.332031 Z M 0 16.851562 "/></g></g><g clip-rule="nonzero" clip-path="url(#1647d6719e)"><g clip-rule="nonzero" clip-path="url(#e89d7788cf)"><path style=" stroke:none;fill-rule:nonzero;fill:#ffffff;fill-opacity:1;" d="M 0 16.851562 L 170.480469 16.851562 L 170.480469 187.332031 L 0 187.332031 Z M 0 16.851562 "/></g></g><g clip-rule="nonzero" clip-path="url(#f606b1c957)"><g clip-rule="nonzero" clip-path="url(#9d733adeaa)"><path style=" stroke:none;fill-rule:nonzero;fill:#ffffff;fill-opacity:1;" d="M 0 16.851562 L 170.480469 16.851562 L 170.480469 187.332031 L 0 187.332031 Z M 0 16.851562 "/></g></g><g clip-rule="nonzero" clip-path="url(#b07031a4ed)"><g clip-rule="nonzero" clip-path="url(#370d911097)"><path style=" stroke:none;fill-rule:nonzero;fill:#ffffff;fill-opacity:1;" d="M 184.082031 44.117188 L 376.792969 44.117188 L 376.792969 159.113281 L 184.082031 159.113281 Z M 184.082031 44.117188 "/></g></g><g clip-rule="nonzero" clip-path="url(#51b2ebcd5a)"><g clip-rule="nonzero" clip-path="url(#f6fb1f1efa)"><path style=" stroke:none;fill-rule:nonzero;fill:#ffffff;fill-opacity:1;" d="M 184.082031 44.117188 L 376.792969 44.117188 L 376.792969 159.113281 L 184.082031 159.113281 Z M 184.082031 44.117188 "/></g></g><g clip-rule="nonzero" clip-path="url(#e3d139168c)"><g clip-rule="nonzero" clip-path="url(#5b4005cfb2)"><path style=" stroke:none;fill-rule:nonzero;fill:#ffffff;fill-opacity:1;" d="M 382.941406 49.054688 L 465.785156 49.054688 L 465.785156 154.222656 L 382.941406 154.222656 Z M 382.941406 49.054688 "/></g></g><g clip-rule="nonzero" clip-path="url(#718fdb838e)"><g clip-rule="nonzero" clip-path="url(#f2a7442b8c)"><path style=" stroke:none;fill-rule:nonzero;fill:#ffffff;fill-opacity:1;" d="M 475.980469 47.484375 L 566.667969 47.484375 L 566.667969 155.882812 L 475.980469 155.882812 Z M 475.980469 47.484375 "/></g></g></g></svg>